<?xml version="1.0" standalone="no"?>
<!DOCTYPE svg PUBLIC "-//W3C//DTD SVG 20010904//EN"
 "http://www.w3.org/TR/2001/REC-SVG-20010904/DTD/svg10.dtd">
<svg version="1.0" xmlns="http://www.w3.org/2000/svg"
 width="512.000000pt" height="512.000000pt" viewBox="0 0 512.000000 512.000000"
 preserveAspectRatio="xMidYMid meet">

<g transform="translate(0.000000,512.000000) scale(0.100000,-0.100000)"
fill="#000000" stroke="none">
<path d="M2445 5109 c-92 -14 -155 -35 -256 -85 l-94 -47 -798 -796 c-559
-558 -811 -815 -841 -861 -93 -141 -130 -267 -130 -440 0 -144 18 -220 87
-360 45 -92 62 -116 142 -195 120 -120 221 -178 386 -222 93 -24 270 -22 373
6 153 41 350 160 418 252 l23 31 5 -859 c5 -845 6 -859 27 -936 80 -282 304
-500 588 -572 95 -24 275 -24 370 0 243 61 436 222 541 450 71 153 68 107 71
1057 l4 857 41 -45 c262 -284 744 -340 1051 -121 98 70 195 180 250 284 67
128 89 219 90 368 1 178 -37 308 -128 445 -30 44 -300 321 -842 861 l-798 797
-105 51 c-58 28 -134 57 -170 65 -86 20 -230 27 -305 15z m243 -258 c47 -25
195 -168 884 -858 869 -871 854 -855 892 -982 20 -70 21 -192 0 -262 -26 -88
-78 -172 -141 -227 -109 -93 -205 -126 -353 -120 -89 3 -104 7 -176 42 -71 35
-100 60 -294 251 -118 117 -229 220 -247 229 -67 34 -141 9 -190 -63 l-23 -34
0 -1052 c0 -1018 -1 -1055 -20 -1116 -41 -134 -123 -229 -252 -295 -87 -44
-89 -44 -191 -44 -78 0 -118 5 -165 21 -133 45 -232 135 -296 269 l-31 65 -5
1075 c-4 816 -8 1080 -17 1096 -21 37 -81 83 -117 89 -70 14 -100 -7 -306
-209 -208 -204 -247 -236 -362 -291 -63 -31 -82 -35 -149 -35 -62 0 -91 6
-147 29 -152 61 -229 130 -290 259 -33 69 -37 87 -40 174 -4 111 15 188 69
274 18 28 385 404 847 867 903 905 870 876 995 877 56 0 78 -5 125 -29z"/>
</g>
</svg>
